<svg width="120" height="25" viewBox="0 0 120 25" fill="none" xmlns="http://www.w3.org/2000/svg">
<g clip-path="url(#clip0_591_1679)">
<path d="M19.4375 22.4747C13.9025 22.4747 9.41681 17.9866 9.41681 12.4506C9.41681 6.91429 13.9025 2.43051 19.4375 2.43051C21.3884 2.43051 23.2098 2.9869 24.7485 3.95134L19.4375 12.4506L29.436 6.67738C28.3497 4.94658 26.7917 3.45521 24.9077 2.32351C22.5104 0.888244 19.1756 0 15.4881 0C10.228 0 5.61324 1.91146 3.03973 4.77396C1.13437 6.89003 0 9.55327 0 12.4504C0 15.3497 1.13437 18.0149 3.03973 20.1324C5.61994 22.9985 10.1659 24.8988 15.3393 24.8988C20.5119 24.8988 25.0565 22.997 27.6384 20.1324C27.7798 19.9747 27.9167 19.8155 28.0461 19.6503L27.6562 18.189C25.8423 20.7783 22.8378 22.4747 19.4375 22.4747Z" fill="#404040"/>
<path d="M52.5864 24.2959L48.39 8.64109C47.7159 6.11133 45.4123 4.25195 42.6697 4.25195C41.9584 4.25195 41.2769 4.37904 40.6444 4.6091L31.6102 7.89421H40.9019L42.4897 13.824C40.9495 12.4984 38.9435 11.6918 36.7471 11.6918C32.3855 11.6918 28.8542 14.6146 28.8542 18.22C28.8542 21.8256 32.3855 24.7527 36.7471 24.7527C39.887 24.7527 42.6638 23.2155 44.3766 20.8539L45.2977 24.2959H52.5864ZM39.7858 21.8643C37.7739 21.8643 36.1429 20.2348 36.1429 18.22C36.1429 16.2081 37.7739 14.5771 39.7858 14.5771C41.7977 14.5771 43.4302 16.2081 43.4302 18.22C43.4302 20.2348 41.7977 21.8643 39.7858 21.8643Z" fill="#404040"/>
<path d="M69.6962 4.25488C69.1456 4.25488 68.6247 4.37661 68.1605 4.59461L62.3599 7.29789C62.0727 5.5711 60.5727 4.25488 58.7631 4.25488C58.2155 4.25488 57.6932 4.37661 57.223 4.59461L50.1411 7.89447H55.1203V24.2963H62.409V9.71917C62.409 8.71337 63.223 7.89461 64.2319 7.89461C65.2349 7.89461 66.0548 8.71337 66.0548 9.71917V24.2963H73.3405V7.89447C73.3405 5.88301 71.7081 4.25503 69.6962 4.25503" fill="#404040"/>
<path d="M97.0253 14.5772C97.0253 20.2782 92.4047 24.8988 86.7053 24.8988C81.0014 24.8988 76.3779 20.2782 76.3779 14.5772C76.3779 8.87765 81.0014 4.25488 86.7053 4.25488C92.4047 4.25488 97.0253 8.8778 97.0253 14.5772ZM87.1324 7.38762C86.808 6.17304 85.5595 5.45206 84.3452 5.77854C83.1324 6.10369 82.4077 7.35295 82.7336 8.56738L86.2738 21.7663C86.6011 22.9821 87.8467 23.7024 89.061 23.3809C90.2753 23.0521 90.997 21.8035 90.6711 20.5893L87.1324 7.38762Z" fill="#404040"/>
<path d="M115.405 4.25488C114.853 4.25488 114.329 4.37661 113.857 4.59461L108.062 7.29789C107.777 5.5711 106.277 4.25488 104.467 4.25488C103.92 4.25488 103.397 4.37661 102.926 4.59461L95.8467 7.89447H100.824V24.2963H108.112V9.71917C108.112 8.71337 108.927 7.89461 109.936 7.89461C110.942 7.89461 111.756 8.71337 111.756 9.71917V24.2963H119.048V7.89447C119.048 5.88301 117.414 4.25503 115.405 4.25503" fill="#404040"/>
</g>
<defs>
<clipPath id="clip0_591_1679">
<rect width="119.048" height="25" fill="white"/>
</clipPath>
</defs>
</svg>
