<svg width="43" height="50" viewBox="0 0 43 50" fill="none" xmlns="http://www.w3.org/2000/svg">
<path d="M35.0998 47.9997C32.3899 50.6297 29.3999 50.2197 26.5499 48.9797C23.5199 47.7147 20.7499 47.6347 17.5499 48.9797C13.5649 50.6997 11.4499 50.1997 9.04985 47.9997C-4.50014 34.0498 -2.50014 12.7998 12.8999 11.9998C16.6349 12.1998 19.2499 14.0648 21.4499 14.2198C24.7199 13.5548 27.8499 11.6498 31.3498 11.8998C35.5548 12.2398 38.6998 13.8998 40.7998 16.8848C32.1498 22.0848 34.1999 33.4848 42.1448 36.6848C40.5548 40.8598 38.5149 44.9847 35.0948 48.0347L35.0998 47.9997ZM21.1499 11.8498C20.7449 5.6498 25.7699 0.549804 31.5499 0.0498047C32.3448 7.1998 25.0499 12.5498 21.1499 11.8498Z" fill="#404040"/>
</svg>
