<svg width="113" height="20" viewBox="0 0 113 20" fill="none" xmlns="http://www.w3.org/2000/svg">
<path fill-rule="evenodd" clip-rule="evenodd" d="M88.4457 19.7965L98.493 0.0840847H102.391L112.404 19.7879H107.665L105.149 14.6382H97.6903L99.2663 11.4493H103.608L100.349 4.78506L93.0385 19.7965H88.4457ZM29.5422 9.95123C29.5422 11.7387 29.4992 12.9213 29.3701 13.7069C29.1267 15.1821 28.6301 16.329 27.8839 17.1933C27.0479 18.1546 25.9083 18.8541 24.5511 19.2315C23.2136 19.6028 21.3413 19.7884 18.8605 19.7884H9.52127V0.0956396H18.8605C21.3155 0.0956396 23.2099 0.264057 24.5339 0.636545C25.7571 0.980759 27.011 1.71714 27.8458 2.67848C28.7002 3.66195 29.1796 5.05601 29.3689 6.19561C29.4882 6.92338 29.5422 8.18221 29.5422 9.95123ZM25.2273 9.94625C25.2273 8.76732 25.1511 7.91661 25.0945 7.42979C25.0023 6.63195 24.8167 5.46655 24.3557 4.79287C23.8762 4.09584 23.2198 3.85243 22.4072 3.64098C21.5442 3.41601 20.5054 3.3865 19.1027 3.37789H13.792V16.4912H19.1027C20.5398 16.4654 21.5884 16.4372 22.3703 16.2663C23.2333 16.0757 24.0791 15.7131 24.4762 14.8931C24.829 14.1629 24.9962 13.3835 25.1056 12.4676C25.1695 11.9427 25.2273 11.1387 25.2273 9.94625ZM86.9026 9.95123C86.9026 11.7387 86.8596 12.9213 86.7305 13.7069C86.4871 15.1821 85.9905 16.329 85.2442 17.1933C84.4083 18.1546 83.2687 18.8541 81.9115 19.2315C80.574 19.6028 78.7017 19.7884 76.2209 19.7884H66.8816V0.0956396H76.2209C78.6771 0.0956396 80.5703 0.264057 81.8943 0.636545C83.1175 0.980759 84.3714 1.71714 85.2061 2.67848C86.0605 3.66195 86.54 5.05601 86.7293 6.19561C86.8485 6.92338 86.9026 8.18221 86.9026 9.95123ZM82.5876 9.94625C82.5876 8.76732 82.5114 7.91661 82.4549 7.42979C82.3627 6.63195 82.1783 5.46655 81.716 4.79287C81.2366 4.09584 80.5801 3.85243 79.7675 3.64098C78.9046 3.41601 77.8658 3.3865 76.4631 3.37789H71.1524V16.4912H76.4631C77.9002 16.4654 78.9488 16.4372 79.7307 16.2663C80.5937 16.0757 81.4395 15.7131 81.8365 14.8931C82.1893 14.1629 82.3565 13.3835 82.4672 12.4676C82.5299 11.9427 82.5876 11.1387 82.5876 9.94625ZM40.7252 19.7965L50.7725 0.0840178H54.6708L64.6837 19.7878H59.9446L57.4282 14.6381H49.9698L51.5458 11.4493H55.8878L52.6288 4.785L45.318 19.7965H40.7252ZM34.2327 19.7866H38.5464V0.0839844L34.2339 0.0853556L34.2327 19.7866ZM0.045166 19.7866H4.35891V0.0839844L0.0463951 0.0853556L0.045166 19.7866Z" fill="#404040"/>
</svg>
