<svg width="60" height="60" viewBox="0 0 60 60" fill="none" xmlns="http://www.w3.org/2000/svg">
<path d="M18.1148 50.0567V55.664C18.1148 57.2567 17.3245 58.1066 15.8884 58.1066C14.4442 58.1066 13.6491 57.2322 13.6491 55.596V50.0628H11.6623V55.664C11.6623 58.42 13.1931 59.9993 15.8622 59.9993C18.5565 59.9993 20.1016 58.3897 20.1016 55.5832V50.0567H18.1148ZM25.4248 50.0567L21.1096 59.8466H23.1376L23.9706 57.9506L24.0302 57.8085H28.5132L29.3924 59.8466H31.4757L27.2005 50.1146L27.1621 50.0566L25.4248 50.0567ZM37.2384 50.0567L35.0148 56.7928L32.8502 50.0617H30.7357L34.1489 59.8527H35.7942L38.0223 53.4208L40.2488 59.8527H41.908L45.3129 50.0617H43.2525L41.0834 56.7928L38.8592 50.0567H37.2384ZM56.6818 50.0567V59.8383H58.6425V50.0567H56.6818ZM0.444824 50.0572V59.8522H2.43224V55.8741H6.91965V59.8522H8.90762V50.0572H6.91965V54.0087H2.43224V50.0572H0.444824ZM46.9153 50.0639V59.8455H54.3122V58.062H48.8759V55.6367H52.4908V53.8526H48.8759V51.8474H54.1228V50.0639H46.9153ZM26.2667 52.5355L27.6836 55.8149H27.6786L27.775 56.0412H24.7691L24.8643 55.8149H24.8627L26.2667 52.5355Z" fill="#404040"/>
<path d="M25.1932 -0.000850203C24.4049 0.0688768 22.2747 0.553756 22.2747 0.553756H22.2738C17.4723 1.79481 16.3374 6.15207 16.3374 6.15207C16.103 6.88476 15.9965 7.63565 15.9651 8.34309V9.30596C16.0288 10.7936 16.3597 11.9044 16.3597 11.9044C17.9636 19.0162 25.8495 30.7019 27.5443 33.1567C27.6645 33.2759 27.7608 33.2329 27.7608 33.2329C27.9438 33.1824 27.9294 33.0069 27.9294 33.0069L27.9329 33.0078C30.5434 6.91539 25.1933 -0.000824931 25.1933 -0.000824931L25.1932 -0.000850203ZM33.8187 -0.000850203C33.8187 -0.000850203 28.4452 6.91905 31.0577 33.0266H31.0612C31.0814 33.1924 31.199 33.2269 31.199 33.2269C31.3738 33.2946 31.4634 33.1267 31.4634 33.1267L31.4643 33.1283C33.2026 30.6109 41.0436 18.9888 42.6404 11.9043C42.6404 11.9043 43.5061 8.47536 42.6703 6.15193C42.6703 6.15193 41.4833 1.72721 36.6758 0.557913C36.6758 0.557913 35.2903 0.2062 33.8188 -0.000976562L33.8187 -0.000850203ZM9.03341 7.83213C9.03341 7.83213 4.45847 12.1744 4.23109 16.7778H4.23291V17.4753C4.23639 17.5278 4.23904 17.581 4.24235 17.6345C4.43942 21.3465 7.23192 23.5435 7.23192 23.5435C11.7312 27.9286 22.6258 33.465 25.1574 34.7212C25.1929 34.7345 25.3237 34.7772 25.4005 34.6801C25.4005 34.6801 25.4404 34.6498 25.4587 34.5953V34.4797C25.4569 34.4731 25.4534 34.4665 25.4501 34.4592H25.4509C18.518 19.3139 9.03351 7.83198 9.03351 7.83198L9.03341 7.83213ZM49.9674 7.83213C49.9674 7.83213 40.5115 19.278 33.5817 34.3926L33.5843 34.3917C33.5843 34.3917 33.5025 34.5669 33.6348 34.6801C33.6348 34.6801 33.6743 34.7099 33.729 34.722H33.8248C33.842 34.7171 33.8605 34.7104 33.8787 34.698V34.6997C36.4791 33.4091 47.2893 27.9091 51.7674 23.5442C51.7674 23.5442 54.6033 21.2668 54.7519 17.6104C55.0793 12.532 49.9675 7.83197 49.9675 7.83197L49.9674 7.83213ZM58.4783 22.8682C58.4783 22.8682 43.0622 31.1412 35.0914 36.5177L35.0923 36.5186L35.0941 36.5203C35.0941 36.5203 34.9495 36.615 35 36.7847C35 36.7847 35.0756 36.9217 35.1857 36.9217V36.9226C38.0407 36.9276 48.8442 36.9396 49.1151 36.8891C49.1151 36.8891 50.5121 36.8333 52.2382 36.1702C52.2382 36.1702 56.081 34.9485 58.077 30.5856C58.077 30.5856 58.989 28.7613 59.0022 26.1984V26.0897C58.9956 25.1013 58.8563 24.0072 58.4784 22.8682H58.4783ZM0.51829 22.9068C-0.884337 27.249 1.00395 30.7478 1.007 30.7535C2.97483 34.9113 6.7311 36.1712 6.7311 36.1712C8.46534 36.8836 10.2 36.9329 10.2 36.9329C10.4708 36.9824 20.9865 36.9379 23.8041 36.9246C23.9234 36.9237 23.989 36.8039 23.989 36.8039C23.9973 36.7906 24.0046 36.7774 24.0079 36.7653V36.6566C23.9845 36.5839 23.9223 36.5326 23.9223 36.5326L23.9241 36.5317C15.9573 31.157 0.518417 22.907 0.518417 22.907L0.51829 22.9068ZM23.4823 38.2595L5.34715 38.8954C7.31383 42.4013 10.626 45.126 14.0762 44.2892C16.4573 43.6939 21.8514 39.9314 23.6321 38.66L23.6261 38.6551C23.7646 38.5307 23.7151 38.4309 23.7151 38.4309C23.6696 38.268 23.4823 38.2682 23.4823 38.2682L23.4823 38.2595ZM35.4937 38.2727L35.4919 38.2794C35.4919 38.2794 35.3327 38.2996 35.2882 38.4188C35.2882 38.4188 35.2495 38.5818 35.3566 38.6627L35.3548 38.6644C37.0911 39.9095 42.3545 43.5893 44.8901 44.3038C44.8901 44.3038 45.2743 44.4345 45.9181 44.4578H46.3049C48.0038 44.3982 50.9633 43.5255 53.6526 38.9049L35.4937 38.2727Z" fill="#404040"/>
</svg>
