<svg width="19" height="20" viewBox="0 0 19 20" fill="none" xmlns="http://www.w3.org/2000/svg">
<path d="M1.78697 6.14201L1.50097 4.77801C1.50097 4.77801 1.6183 4.74868 1.85297 4.69001C2.1023 4.63135 2.42497 4.56535 2.82097 4.49201C3.21697 4.40401 3.6643 4.30868 4.16297 4.20601C4.66163 4.10335 5.1823 4.00068 5.72497 3.89801C6.26763 3.79535 6.7883 3.70735 7.28697 3.63401C7.78563 3.54601 8.24763 3.48001 8.67297 3.43601C9.0983 3.39201 9.4283 3.37735 9.66297 3.39201L9.57497 4.77801C9.10563 4.76335 8.01297 4.90268 6.29697 5.19601L5.35097 14.678C6.71497 14.3553 8.12297 14.15 9.57497 14.062L9.64097 15.47C8.2183 15.5287 6.73697 15.756 5.19697 16.152L5.10897 17.054L3.70097 16.9L3.72297 16.57C3.41497 16.6727 3.10697 16.7753 2.79897 16.878C2.49097 16.9807 2.22697 17.076 2.00697 17.164C1.80163 17.2373 1.6183 17.3107 1.45697 17.384C1.29563 17.4573 1.17097 17.516 1.08297 17.56C0.994967 17.5893 0.950967 17.604 0.950967 17.604L0.378967 16.328C1.31763 15.888 2.49097 15.4627 3.89897 15.052L4.84497 5.48201C4.37563 5.58468 3.8843 5.69468 3.37097 5.81201C2.85763 5.91468 2.46897 5.99535 2.20497 6.05401C1.94097 6.11268 1.80163 6.14201 1.78697 6.14201Z" fill="#000"/>
<path d="M11.1497 3.98601L12.5357 3.85401C12.5357 3.85401 12.543 3.86868 12.5577 3.89801C12.7777 6.34735 12.8657 8.86268 12.8217 11.444H15.5717C15.5864 7.92401 15.4177 4.42601 15.0657 0.950014C15.0657 0.920681 15.0657 0.906015 15.0657 0.906015L16.4517 0.752014C16.4517 0.752014 16.4517 0.766681 16.4517 0.796014C16.8184 4.31601 16.9944 7.86535 16.9797 11.444H18.7617V12.852H16.9577C16.8697 15.5067 16.6717 17.7727 16.3637 19.65L14.9777 19.43C15.3004 17.5233 15.491 15.3307 15.5497 12.852H12.7997C12.7557 14.128 12.675 15.3013 12.5577 16.372L11.1497 16.218C11.267 15.162 11.3477 14.04 11.3917 12.852H9.47769V11.444H11.4137C11.4577 8.90668 11.3697 6.43535 11.1497 4.03001C11.1497 4.00068 11.1497 3.98601 11.1497 3.98601Z" fill="#000"/>
</svg>
